<svg xmlns="http://www.w3.org/2000/svg" viewBox="0 0 39 41" width="39" height="41">
	<defs>
		<filter id="flt1"> <feColorMatrix in="SourceGraphic" type="matrix" values="0 0 0 0 1   0 0 0 0 1   0 0 0 0 1   0 0 0 1 0" /> </filter>
	</defs>
	<style>
		tspan { white-space:pre }
		.shp0 { filter: url(#flt1);fill: #ffffff } 
	</style>
	<path id="Фигура 1" class="shp0" d="M0 37.6L0 35.23C0 33.56 1.33 32.2 2.96 32.2L19.97 32.2C22.3 32.2 23.5 33.33 23.5 35L23.5 38.38C23.5 40.12 22.35 41 19.97 41L2.74 41C1.01 41 0 39.82 0 37.6ZM3.36 37.8L20.14 37.8C20.26 37.8 20.36 37.7 20.36 37.57L20.36 35.63C20.36 35.5 20.26 35.4 20.14 35.4L3.36 35.4C3.23 35.4 3.13 35.5 3.13 35.63L3.13 37.57C3.13 37.7 3.23 37.8 3.36 37.8ZM13.09 13.81C13.21 13.81 13.31 13.91 13.31 14.04L13.31 14.61L13.31 21.46L13.31 21.46L13.31 21.46L12.43 23.9C12.37 24.05 12.48 24.2 12.64 24.2L13.88 24.2C13.95 24.2 14.02 24.17 14.06 24.11L30.26 1.07C30.33 0.97 30.46 0.94 30.55 1L33.8 3C33.91 3.07 33.94 3.2 33.88 3.31L32.92 5.02C32.9 5.06 32.89 5.1 32.89 5.14L32.89 15.18C32.89 15.3 32.99 15.41 33.12 15.41L33.79 15.41C33.93 15.41 34.03 15.53 34.01 15.67L33.3 20.81C33.28 20.92 33.19 21.01 33.08 21.01L32.93 21.01L32.89 21.01L32.89 22.55C32.89 22.64 32.94 22.72 33.01 22.76C33.69 23.11 34.38 23.8 34.38 24.99C34.38 25.73 34.13 26.29 33.76 26.7C33.67 26.79 33.68 26.94 33.77 27.03L37.38 30.2C37.53 30.34 37.44 30.6 37.23 30.6L36.72 30.6C36.66 30.6 36.61 30.58 36.57 30.55L32.97 27.38C32.91 27.33 32.83 27.31 32.75 27.34C32.45 27.44 32.13 27.5 31.81 27.5C31.49 27.5 31.17 27.43 30.88 27.29C30.81 27.25 30.72 27.26 30.65 27.32L26.74 30.55C26.7 30.58 26.65 30.6 26.6 30.6L26.15 30.6C25.91 30.6 25.81 30.29 25.99 30.14L29.98 26.85C30.06 26.77 30.09 26.64 30.02 26.54C29.77 26.17 29.61 25.7 29.61 25.12C29.61 24.68 29.96 24.32 30.4 24.32C30.83 24.32 31.18 24.68 31.18 25.12C31.18 25.23 31.19 25.33 31.21 25.41C31.25 25.57 31.44 25.63 31.57 25.53L31.57 25.53C31.72 25.41 31.93 25.41 32.07 25.54L32.24 25.69C32.32 25.76 32.44 25.76 32.53 25.69C32.7 25.56 32.82 25.34 32.82 24.99C32.82 24.27 32.11 24.09 31.98 24.06C31.6 24 31.33 23.67 31.33 23.28L31.33 21.23C31.33 21.11 31.23 21.01 31.1 21.01L30.78 21.01L30.64 21.01C30.53 21.01 30.44 20.93 30.42 20.82L29.42 15.68C29.39 15.54 29.49 15.41 29.63 15.41L30.15 15.41L30.32 15.41C30.44 15.41 30.54 15.3 30.54 15.18L30.54 10.54C30.54 10.3 30.23 10.22 30.12 10.43L21.17 28.02C21.15 28.06 21.15 28.09 21.15 28.13L21.15 28.2L21.15 28.44L21.15 28.78C21.15 28.9 21.05 29 20.92 29L18.24 29C18.11 29 18.01 29.11 18.01 29.23L18.01 30.37C18.01 30.5 17.91 30.6 17.79 30.6L7.05 30.6L6.49 30.6C6.37 30.6 6.27 30.5 6.27 30.37L6.27 29.23C6.27 29.11 6.17 29 6.04 29L2.35 29L1.79 29C1.67 29 1.57 28.9 1.57 28.78L1.57 14.04C1.57 13.91 1.67 13.81 1.79 13.81L13.09 13.81ZM20.09 17.97L20.08 17.98L22.69 19.72C22.87 19.84 23.1 19.65 23.02 19.44L21.78 16.19C21.72 16.02 21.5 15.99 21.39 16.14L20.09 17.97ZM31.33 15.18C31.33 15.3 31.43 15.41 31.55 15.41L31.72 15.41L31.89 15.41C32.01 15.41 32.11 15.3 32.11 15.18L32.11 7.5C32.11 7.26 31.8 7.19 31.69 7.4L31.35 8.04C31.34 8.08 31.33 8.11 31.33 8.15L31.33 15.18ZM30.94 6.68L31.9 4.82C31.96 4.71 31.92 4.58 31.83 4.52L30.33 3.51C30.17 3.4 29.95 3.55 29.99 3.75L30.53 6.61C30.57 6.83 30.84 6.87 30.94 6.68ZM28.53 5.36L27.42 7.32C27.36 7.43 27.39 7.56 27.49 7.63L29.28 8.81C29.45 8.92 29.66 8.77 29.62 8.57L28.94 5.42C28.89 5.22 28.63 5.18 28.53 5.36ZM28.4 10.52L26.75 9.42C26.58 9.31 26.36 9.46 26.41 9.66L27.05 12.67C27.1 12.88 27.37 12.92 27.47 12.73L28.48 10.82C28.53 10.72 28.5 10.59 28.4 10.52ZM25.03 10.92L23.77 12.79C23.7 12.9 23.73 13.04 23.83 13.11L25.72 14.35C25.89 14.46 26.1 14.31 26.06 14.11L25.43 11C25.39 10.8 25.14 10.75 25.03 10.92ZM25.42 16.44L23.33 14.98C23.15 14.85 22.92 15.04 23 15.25L24.19 18.5C24.26 18.68 24.51 18.7 24.59 18.52L25.49 16.73C25.54 16.63 25.51 16.5 25.42 16.44ZM21.62 23.75L22.66 21.88C22.72 21.77 22.69 21.64 22.6 21.58L20.01 19.69C19.83 19.56 19.59 19.75 19.67 19.96L21.22 23.73C21.29 23.9 21.53 23.92 21.62 23.75ZM20.03 25.25L18.17 21.16C18.1 21 17.89 20.98 17.79 21.12L16.28 23.22C16.2 23.33 16.23 23.49 16.34 23.56L19.72 25.54C19.91 25.66 20.13 25.45 20.03 25.25ZM4.92 21.81L9.96 21.81C10.08 21.81 10.18 21.7 10.18 21.58L10.18 17.23C10.18 17.11 10.08 17.01 9.96 17.01L4.92 17.01C4.8 17.01 4.7 17.11 4.7 17.23L4.7 21.58C4.7 21.7 4.8 21.81 4.92 21.81ZM37.22 35.4L37.78 35.4C37.9 35.4 38 35.5 38 35.63L38 36.77C38 36.9 37.9 37 37.78 37L25.69 37C25.57 37 25.47 36.9 25.47 36.77L25.47 35.63C25.47 35.5 25.57 35.4 25.69 35.4L26.81 35.4C26.94 35.4 27.04 35.3 27.04 35.17L27.04 33.8L27.04 33.23C27.04 33.1 26.94 33 26.81 33L25.69 33C25.57 33 25.47 32.9 25.47 32.77L25.47 31.63C25.47 31.5 25.57 31.4 25.69 31.4L37.78 31.4C37.9 31.4 38 31.5 38 31.63L38 32.77C38 32.9 37.9 33 37.78 33L36.66 33C36.53 33 36.43 33.1 36.43 33.23L36.43 35.17C36.43 35.3 36.53 35.4 36.66 35.4L37.22 35.4Z" />
</svg>