<?xml version="1.0" encoding="UTF-8"?>
<svg xmlns="http://www.w3.org/2000/svg" xmlns:xlink="http://www.w3.org/1999/xlink" width="15pt" height="15pt" viewBox="0 0 15 15" version="1.1">
<g id="surface1">
<path style=" stroke:none;fill-rule:nonzero;fill:rgb(100%,100%,100%);fill-opacity:1;" d="M 12.65625 1.40625 L 10.78125 1.40625 L 10.78125 0.9375 C 10.78125 0.65625 10.59375 0.46875 10.3125 0.46875 C 10.03125 0.46875 9.84375 0.65625 9.84375 0.9375 L 9.84375 1.40625 L 5.15625 1.40625 L 5.15625 0.9375 C 5.15625 0.65625 4.96875 0.46875 4.6875 0.46875 C 4.40625 0.46875 4.21875 0.65625 4.21875 0.9375 L 4.21875 1.40625 L 2.34375 1.40625 C 1.03125 1.40625 0 2.4375 0 3.75 L 0 12.1875 C 0 13.5 1.03125 14.53125 2.34375 14.53125 L 12.65625 14.53125 C 13.96875 14.53125 15 13.5 15 12.1875 L 15 3.75 C 15 2.4375 13.96875 1.40625 12.65625 1.40625 Z M 0.9375 3.75 C 0.9375 3 1.59375 2.34375 2.34375 2.34375 L 4.21875 2.34375 L 4.21875 2.8125 C 4.21875 3.09375 4.40625 3.28125 4.6875 3.28125 C 4.96875 3.28125 5.15625 3.09375 5.15625 2.8125 L 5.15625 2.34375 L 9.84375 2.34375 L 9.84375 2.8125 C 9.84375 3.09375 10.03125 3.28125 10.3125 3.28125 C 10.59375 3.28125 10.78125 3.09375 10.78125 2.8125 L 10.78125 2.34375 L 12.65625 2.34375 C 13.40625 2.34375 14.0625 3 14.0625 3.75 L 14.0625 5.15625 L 0.9375 5.15625 Z M 14.0625 12.1875 C 14.0625 12.9375 13.40625 13.59375 12.65625 13.59375 L 2.34375 13.59375 C 1.59375 13.59375 0.9375 12.9375 0.9375 12.1875 L 0.9375 6.09375 L 14.0625 6.09375 Z M 14.0625 12.1875 "/>
<path style=" stroke:none;fill-rule:nonzero;fill:rgb(100%,100%,100%);fill-opacity:1;" d="M 3.28125 12.1875 C 3.5625 12.1875 3.75 12.09375 3.9375 11.90625 C 4.125 11.71875 4.21875 11.4375 4.21875 11.25 C 4.21875 11.0625 4.125 10.78125 3.9375 10.59375 C 3.5625 10.21875 3 10.21875 2.625 10.59375 C 2.4375 10.78125 2.34375 10.96875 2.34375 11.25 C 2.34375 11.4375 2.4375 11.71875 2.625 11.90625 C 2.8125 12.09375 3 12.1875 3.28125 12.1875 Z M 3.28125 12.1875 "/>
<path style=" stroke:none;fill-rule:nonzero;fill:rgb(100%,100%,100%);fill-opacity:1;" d="M 3.28125 9.375 C 3.5625 9.375 3.75 9.28125 3.9375 9.09375 C 4.125 8.90625 4.21875 8.625 4.21875 8.4375 C 4.21875 8.25 4.125 7.96875 3.9375 7.78125 C 3.5625 7.40625 3 7.40625 2.625 7.78125 C 2.4375 7.96875 2.34375 8.15625 2.34375 8.4375 C 2.34375 8.71875 2.4375 8.90625 2.625 9.09375 C 2.8125 9.28125 3 9.375 3.28125 9.375 Z M 3.28125 9.375 "/>
<path style=" stroke:none;fill-rule:nonzero;fill:rgb(100%,100%,100%);fill-opacity:1;" d="M 6.09375 12.1875 C 6.375 12.1875 6.5625 12.09375 6.75 11.90625 C 6.9375 11.71875 7.03125 11.4375 7.03125 11.25 C 7.03125 11.0625 6.9375 10.78125 6.75 10.59375 C 6.375 10.21875 5.8125 10.21875 5.4375 10.59375 C 5.25 10.78125 5.15625 11.0625 5.15625 11.25 C 5.15625 11.4375 5.25 11.71875 5.4375 11.90625 C 5.625 12.09375 5.8125 12.1875 6.09375 12.1875 Z M 6.09375 12.1875 "/>
<path style=" stroke:none;fill-rule:nonzero;fill:rgb(100%,100%,100%);fill-opacity:1;" d="M 6.09375 9.375 C 6.375 9.375 6.5625 9.28125 6.75 9.09375 C 6.9375 8.90625 7.03125 8.625 7.03125 8.4375 C 7.03125 8.25 6.9375 7.96875 6.75 7.78125 C 6.375 7.40625 5.8125 7.40625 5.4375 7.78125 C 5.25 7.96875 5.15625 8.25 5.15625 8.4375 C 5.15625 8.625 5.25 8.90625 5.4375 9.09375 C 5.625 9.28125 5.8125 9.375 6.09375 9.375 Z M 6.09375 9.375 "/>
<path style=" stroke:none;fill-rule:nonzero;fill:rgb(100%,100%,100%);fill-opacity:1;" d="M 8.90625 12.1875 C 9.1875 12.1875 9.375 12.09375 9.5625 11.90625 C 9.75 11.71875 9.84375 11.53125 9.84375 11.25 C 9.84375 10.96875 9.75 10.78125 9.5625 10.59375 C 9.1875 10.21875 8.625 10.21875 8.25 10.59375 C 8.0625 10.78125 7.96875 11.0625 7.96875 11.25 C 7.96875 11.4375 8.0625 11.71875 8.25 11.90625 C 8.4375 12.09375 8.625 12.1875 8.90625 12.1875 Z M 8.90625 12.1875 "/>
<path style=" stroke:none;fill-rule:nonzero;fill:rgb(100%,100%,100%);fill-opacity:1;" d="M 8.90625 9.375 C 9.1875 9.375 9.375 9.28125 9.5625 9.09375 C 9.75 8.90625 9.84375 8.71875 9.84375 8.4375 C 9.84375 8.25 9.75 7.96875 9.5625 7.78125 C 9.1875 7.40625 8.625 7.40625 8.25 7.78125 C 8.0625 7.96875 7.96875 8.25 7.96875 8.4375 C 7.96875 8.625 8.0625 8.90625 8.25 9.09375 C 8.4375 9.28125 8.625 9.375 8.90625 9.375 Z M 8.90625 9.375 "/>
<path style=" stroke:none;fill-rule:nonzero;fill:rgb(100%,100%,100%);fill-opacity:1;" d="M 11.71875 12.1875 C 12 12.1875 12.1875 12.09375 12.375 11.90625 C 12.5625 11.71875 12.65625 11.4375 12.65625 11.25 C 12.65625 11.0625 12.5625 10.78125 12.375 10.59375 C 12 10.21875 11.4375 10.21875 11.0625 10.59375 C 10.875 10.78125 10.78125 10.96875 10.78125 11.25 C 10.78125 11.4375 10.875 11.71875 11.0625 11.90625 C 11.25 12.09375 11.4375 12.1875 11.71875 12.1875 Z M 11.71875 12.1875 "/>
<path style=" stroke:none;fill-rule:nonzero;fill:rgb(100%,100%,100%);fill-opacity:1;" d="M 11.71875 9.375 C 12 9.375 12.1875 9.28125 12.375 9.09375 C 12.5625 8.90625 12.65625 8.71875 12.65625 8.4375 C 12.65625 8.25 12.5625 7.96875 12.375 7.78125 C 12 7.40625 11.4375 7.40625 11.0625 7.78125 C 10.875 7.96875 10.78125 8.25 10.78125 8.4375 C 10.78125 8.625 10.875 8.90625 11.0625 9.09375 C 11.25 9.28125 11.4375 9.375 11.71875 9.375 Z M 11.71875 9.375 "/>
</g>
</svg>
