<?xml version="1.0" encoding="UTF-8"?>
<svg xmlns="http://www.w3.org/2000/svg" xmlns:xlink="http://www.w3.org/1999/xlink" width="15pt" height="15pt" viewBox="0 0 15 15" version="1.1">
<g id="surface1">
<path style=" stroke:none;fill-rule:nonzero;fill:rgb(100%,100%,100%);fill-opacity:1;" d="M 7.5 0 C 3.363281 0 0 3.363281 0 7.5 C 0 11.636719 3.363281 15 7.5 15 C 11.636719 15 15 11.636719 15 7.5 C 15 3.363281 11.636719 0 7.5 0 Z M 7.5 13.402344 C 4.246094 13.402344 1.597656 10.753906 1.597656 7.5 C 1.597656 4.246094 4.246094 1.597656 7.5 1.597656 C 10.753906 1.597656 13.402344 4.246094 13.402344 7.5 C 13.402344 10.753906 10.753906 13.402344 7.5 13.402344 Z M 7.5 13.402344 "/>
<path style=" stroke:none;fill-rule:nonzero;fill:rgb(100%,100%,100%);fill-opacity:1;" d="M 11.410156 7.269531 L 8.039062 7.269531 L 8.039062 3.214844 C 8.039062 2.875 7.761719 2.597656 7.421875 2.597656 C 7.078125 2.597656 6.804688 2.875 6.804688 3.214844 L 6.804688 7.886719 C 6.804688 8.226562 7.078125 8.503906 7.421875 8.503906 L 11.410156 8.503906 C 11.75 8.503906 12.027344 8.226562 12.027344 7.886719 C 12.027344 7.546875 11.75 7.269531 11.410156 7.269531 Z M 11.410156 7.269531 "/>
</g>
</svg>
