<?xml version="1.0" encoding="UTF-8"?>
<svg xmlns="http://www.w3.org/2000/svg" xmlns:xlink="http://www.w3.org/1999/xlink" width="15pt" height="15pt" viewBox="0 0 15 15" version="1.1">
<g id="surface1">
<path style=" stroke:none;fill-rule:nonzero;fill:rgb(100%,100%,100%);fill-opacity:1;" d="M 8.730469 1.230469 C 8.730469 1.914062 8.179688 2.464844 7.5 2.464844 C 6.820312 2.464844 6.269531 1.914062 6.269531 1.230469 C 6.269531 0.550781 6.820312 0 7.5 0 C 8.179688 0 8.730469 0.550781 8.730469 1.230469 Z M 8.730469 1.230469 "/>
<path style=" stroke:none;fill-rule:nonzero;fill:rgb(100%,100%,100%);fill-opacity:1;" d="M 11.300781 7.898438 C 10.953125 3.996094 9.09375 3.214844 9.09375 3.214844 C 9.09375 3.214844 7.296875 2.136719 5.402344 3.511719 C 4.175781 4.628906 3.890625 6.332031 3.699219 7.980469 C 3.601562 8.816406 4.910156 8.808594 5.007812 7.980469 C 5.121094 6.996094 5.289062 6.011719 5.773438 5.167969 L 5.773438 6.117188 L 5.765625 10.679688 L 5.765625 14.296875 C 5.765625 14.683594 6.050781 15 6.449219 15 C 6.847656 15 7.175781 14.683594 7.175781 14.296875 L 7.175781 9.125 L 7.816406 9.125 C 7.816406 10.335938 7.816406 13.101562 7.816406 14.3125 C 7.816406 15.15625 9.121094 15.15625 9.121094 14.3125 C 9.121094 13.101562 9.121094 11.890625 9.121094 10.679688 L 9.179688 6.109375 C 9.179688 5.671875 9.179688 5.285156 9.179688 5.011719 C 9.703125 5.867188 9.875 6.886719 9.992188 7.898438 C 10.089844 8.726562 11.398438 8.734375 11.300781 7.898438 Z M 11.300781 7.898438 "/>
</g>
</svg>
